<svg width="16" height="17" viewBox="0 0 16 17" fill="none" xmlns="http://www.w3.org/2000/svg">
<path d="M14.0625 0.375H1.6875C0.738281 0.375 0 1.14844 0 2.0625V14.4375C0 15.3867 0.738281 16.125 1.6875 16.125H14.0625C14.9766 16.125 15.75 15.3867 15.75 14.4375V2.0625C15.75 1.14844 14.9766 0.375 14.0625 0.375ZM13.8516 14.4375H1.89844C1.75781 14.4375 1.6875 14.3672 1.6875 14.2266V2.27344C1.6875 2.16797 1.75781 2.0625 1.89844 2.0625H13.8516C13.957 2.0625 14.0625 2.16797 14.0625 2.27344V14.2266C14.0625 14.3672 13.957 14.4375 13.8516 14.4375ZM11.9531 3.75H7.17188C6.78516 3.75 6.57422 4.20703 6.85547 4.48828L8.54297 6.17578L3.48047 11.2383C3.30469 11.4141 3.30469 11.6953 3.48047 11.8359L4.28906 12.6445C4.42969 12.8203 4.71094 12.8203 4.88672 12.6445L9.94922 7.58203L11.6367 9.26953C11.918 9.51562 12.375 9.33984 12.375 8.95312V4.17188C12.375 3.96094 12.1641 3.75 11.9531 3.75Z" fill="white"/>
</svg>
