<svg width="43" height="43" viewBox="0 0 43 43" fill="none" xmlns="http://www.w3.org/2000/svg">
<path d="M0 0V28.036V29.6055V43H43V29.6378V27.2083V0H0ZM28.2617 18.0815L36.7435 25.714L27.8533 22.145L11.5455 25.7463L28.2617 18.0815ZM11.5563 22.8975L29.111 10.277L36.7865 22.274L28.7347 15.0285L11.5563 22.8975ZM27.6383 24.8325L36.4748 28.38H11.5885L27.6383 24.8325ZM40.42 40.42H2.58V36.98H40.42V40.42ZM40.42 34.4H2.58V30.96H40.42V34.4ZM29.8205 6.6005L2.58 26.1763V2.58H40.42V23.177L29.8205 6.6005Z" fill="black"/>
<path d="M11.5884 28.38H36.4639L27.6382 24.8325L11.5884 28.38Z" fill="#BD9A79"/>
<path d="M36.7865 22.2849L29.111 10.2771L11.5563 22.8976L28.7348 15.0286L36.7865 22.2849Z" fill="#F0CB9E"/>
<path d="M27.8532 22.145L36.7434 25.714L28.2617 18.0815L11.5454 25.7463L27.8532 22.145Z" fill="#DBC2A8"/>
<path d="M2.58008 26.1763L29.8206 6.60058L40.4201 23.1771V2.58008H2.58008V26.1763Z" fill="#DEB793"/>
<path d="M40.4201 36.98H2.58008V40.42H40.4201V36.98Z" fill="#55460F"/>
<path d="M40.4201 30.96H2.58008V34.4H40.4201V30.96Z" fill="#866D3B"/>
</svg>
