<svg width="19" height="14" viewBox="0 0 19 14" fill="none" xmlns="http://www.w3.org/2000/svg">
<path d="M18.0172 3.34986L18.0038 3.3632L17.9905 3.34986H17.9771H17.9638L17.9504 3.3632H17.9371H17.9237H17.857H17.8437H17.8303H17.7636L17.7102 3.37655L17.4967 3.46997L17.2297 3.56339V3.14967L16.9094 3.02955L16.6959 2.90944L16.5624 2.68255L16.4957 2.38894L16.3489 2.18875L16.0419 2.09533L15.6949 1.81506L15.4147 1.60153L14.9876 1.46806L14.6406 1.38799L14.387 1.3346L14.1335 1.02765L13.8932 0.974261L13.5996 0.934223L13.3594 0.814109L13.1192 1.22784L12.8789 1.3346L12.6787 1.45472L12.5052 1.80172L12.3184 1.64156L12.1716 1.41468L12.0114 1.28122L11.7445 1.52145L12.1182 1.81506L12.3317 2.01525L12.6387 2.2021L12.4919 2.5224L12.5453 2.90944L12.3851 3.33651L12.4519 3.59009L12.4919 3.84366L12.3718 4.12393L12.4118 4.41754L12.0648 4.44423L11.9714 4.17731L11.7579 4.00381L11.7445 3.72355L11.571 3.51001L11.3975 3.3632L11.1706 3.20305L11.0238 2.98951L10.837 2.82936L10.7569 2.58913L10.5567 2.41563L10.183 2.21544L9.86273 2.04194L9.6225 2.00191L9.38227 1.90848L9.14204 1.86845L8.87512 1.82841H8.54147L8.32793 1.76168L8.12774 1.64156L7.90086 1.65491L7.67398 1.69495L7.40705 1.84175L7.15348 1.81506L6.93994 1.6816L6.80648 1.45472L6.64633 1.29457L6.52622 1.00095L6.51287 0.734032L6.28599 0.587226L6.04576 0.57388L5.83222 0.747378L5.5653 0.600572L5.48522 0.346997L5.36511 0.13346L4.93804 0.0667302L4.69781 0L4.51096 0.306959V0.680648L4.53766 1.05434L4.60439 1.32126L4.79123 1.48141L4.69781 2.01525L4.49762 2.21544L4.63108 2.53575L4.64442 2.82936L4.48427 3.05624L4.27073 3.22974L4.28408 3.59009L4.12393 3.79028L3.92374 3.93708L3.73689 4.15062L3.52336 4.24404L3.28313 4.28408L2.93613 4.25739L2.80267 4.44423L2.60248 4.76454L2.42898 4.96473L2.22879 5.08484L2.00191 5.19161L1.74833 5.20496L1.52145 5.28503L1.30791 5.41849L1.08103 5.48522L0.840801 5.57865L0.667302 5.72545L0.453766 5.85891L0.320305 6.0858L0.226883 6.33937L0.306959 6.60629L0.0667302 6.83317L0 7.10009L0.253575 7.12679L0.480458 7.16682L0.720686 7.10009L0.947569 7.08675L1.21449 7.00667L1.44137 7.03336L1.69495 7.04671L1.8551 7.31363L1.81506 7.58055L1.96187 7.78074L2.00191 8.07436L2.05529 8.35462L2.06864 8.64824L2.25548 8.96854L2.13537 9.20877L2.06864 9.46235L2.00191 9.72927L1.94852 10.0095L1.69495 10.143L1.45472 10.45L1.30791 10.6902L1.29457 10.9571V11.4242L1.45472 11.7979L1.54814 12.0515V12.3451L1.74833 12.5186L2.01525 12.8122L2.30887 12.9323L2.38894 13.4128L2.45567 13.6797L2.6959 13.6663L2.92278 13.7464L3.16301 13.7998L3.40324 13.8132L3.63012 13.9066L3.85701 13.9199L4.12393 13.9066V13.8932L4.33746 13.5729L4.64442 13.5329L5.0448 13.7331L5.33842 13.693L5.0448 13.4795C4.93804 12.8656 4.95138 12.0782 5.23165 11.5043C7.23356 10.0896 9.88942 9.14204 12.3451 9.63584L12.2517 9.98284L12.4652 9.96949L12.5586 9.71592L13.346 9.95615L13.6397 9.66254L13.8932 9.82269L13.9867 10.0763L14.2269 10.2097L14.1468 10.6368C14.5072 10.9571 14.8675 11.2107 14.9476 11.7045L15.1745 11.6644L15.428 11.8379V11.9447L15.3213 11.9581L15.0276 11.8246V11.9981L14.8141 12.3451L15.0143 12.3184L15.0543 12.4252L15.4681 12.5453L15.1211 12.6387L15.2545 12.7855L15.2812 13.0791L15.4681 13.1859H15.1745L15.2145 13.3327L15.0543 13.3994L15.2412 13.613L14.8942 13.653L15.1878 13.7064L15.0276 13.8799L15.3746 14L15.4948 13.7064L15.735 13.8132L16.5224 13.7197L16.4957 13.2393L16.2154 13.1725L16.0553 12.6387C16.3489 12.0381 16.8561 11.9714 17.4566 11.8246L17.4967 11.7312L17.2965 11.5844L17.55 11.4909L17.5634 11.1173L17.9638 10.8904L18.0038 10.6768L17.6835 10.4633L17.123 10.5434L16.5624 10.2364L16.3756 9.80934L16.4824 9.7693L16.2555 9.52907H16.122L16.0953 9.7693L15.9352 9.92946L15.6949 9.66254L15.5348 9.6225L15.4948 9.48904L15.735 9.2755L15.7617 9.08866L16.0153 8.9285L16.0019 8.82173L15.5748 8.755L15.4814 8.40801L15.6949 8.2612L15.8151 8.55481L16.0286 8.42135L15.8818 7.79409L15.9619 7.78074L15.9218 7.63394L15.735 7.48713L15.8418 7.26025L15.4948 7.39371L15.4814 7.22021L15.2946 7.14013L15.388 6.8999L15.5748 6.97998L15.7617 6.8999L15.4948 6.80648L15.4814 6.71306L16.0686 6.61964L16.1621 6.81983L16.3089 6.85987L16.7092 6.21926L16.6692 6.04576L16.469 6.00572L16.4423 5.85891L16.2421 5.93899L15.775 5.84557L15.8151 5.7388L15.7483 5.49857L15.9485 5.31173C16.2421 5.32507 16.5091 5.43184 16.7359 5.60534L16.8294 5.44519L16.7626 5.19161L16.8827 5.17826L16.9228 5.49857L17.0429 5.45853L17.0029 5.23165H17.0963L17.2831 5.37846C17.3766 5.31173 17.47 5.23165 17.55 5.13823C17.51 5.0448 17.51 4.95138 17.5234 4.84461L17.7235 4.77788L17.7903 4.81792L17.6568 4.85796L17.6168 5.13823L17.8437 5.09819L17.897 4.71115L18.0172 4.69781V4.97807L18.244 4.85796L18.2307 4.71115L18.1506 4.61773C18.1907 4.57769 18.2307 4.551 18.2841 4.52431L18.3775 4.76454L18.5643 4.7245L18.6177 4.56435H18.5243L18.4576 4.48427L18.4976 4.41754L18.4042 4.32412L18.4175 4.17731L18.6444 4.21735L18.9113 4.01716C18.9514 3.95043 18.9781 3.89704 18.9781 3.81697C18.938 3.79028 18.8847 3.79028 18.8313 3.80362L18.7645 3.76358C18.7378 3.69685 18.7378 3.64347 18.7645 3.57674C18.6978 3.56339 18.6444 3.56339 18.5777 3.57674C18.5777 3.63012 18.5643 3.67016 18.5377 3.72355L18.4442 3.7102C18.4576 3.60343 18.4709 3.49666 18.4576 3.38989C18.4175 3.3632 18.3909 3.32316 18.3642 3.29647L17.9504 3.32316L18.0172 3.34986Z" fill="#297CBA"/>
</svg>
