<svg width="14" height="16" viewBox="0 0 14 16" fill="none" xmlns="http://www.w3.org/2000/svg">
<path d="M12.2812 5.75L13 5.0625C13.1562 4.90625 13.1562 4.6875 13 4.53125L12.4688 4C12.3125 3.84375 12.0938 3.84375 11.9375 4L11.2812 4.65625C10.3125 3.78125 9.09375 3.21875 7.75 3.0625V1.5H8.625C8.8125 1.5 9 1.34375 9 1.125V0.375C9 0.1875 8.8125 0 8.625 0H5.375C5.15625 0 5 0.1875 5 0.375V1.125C5 1.34375 5.15625 1.5 5.375 1.5H6.25V3.0625C3 3.4375 0.5 6.1875 0.5 9.5C0.5 13.0938 3.40625 16 7 16C10.5625 16 13.5 13.0938 13.5 9.5C13.5 8.125 13.0312 6.8125 12.2812 5.75ZM7 14.5C4.21875 14.5 2 12.2812 2 9.5C2 6.75 4.21875 4.5 7 4.5C9.75 4.5 12 6.75 12 9.5C12 12.2812 9.75 14.5 7 14.5ZM7.375 11C7.5625 11 7.75 10.8438 7.75 10.625V6.375C7.75 6.1875 7.5625 6 7.375 6H6.625C6.40625 6 6.25 6.1875 6.25 6.375V10.625C6.25 10.8438 6.40625 11 6.625 11H7.375Z" fill="#141414"/>
</svg>
